<?xml version="1.0" standalone="no"?><!DOCTYPE svg PUBLIC "-//W3C//DTD SVG 1.1//EN" "http://www.w3.org/Graphics/SVG/1.1/DTD/svg11.dtd"><svg t="1641306337112" class="icon" viewBox="0 0 1184 1024" version="1.1" xmlns="http://www.w3.org/2000/svg" p-id="2441" xmlns:xlink="http://www.w3.org/1999/xlink" width="231.25" height="200"><defs><style type="text/css"></style></defs><path d="M1150.08 28.16h-226.56c-39.68 0-70.4 32-70.4 70.4v800c0 39.68 32 70.4 70.4 70.4h226.56c7.68 0 14.08-6.4 14.08-14.08V896c0-7.68-6.4-14.08-14.08-14.08H995.2c-6.4 0-11.52-5.12-11.52-11.52v-35.84c0-6.4 5.12-11.52 11.52-11.52h153.6c7.68 0 15.36-6.4 15.36-15.36v-29.44c0-7.68-6.4-15.36-15.36-15.36h-153.6c-6.4 0-11.52-5.12-11.52-11.52V716.8c0-6.4 5.12-11.52 11.52-11.52h153.6c8.96 0 15.36-6.4 15.36-15.36v-29.44c0-7.68-6.4-15.36-15.36-15.36h-153.6c-6.4 0-11.52-5.12-11.52-11.52v-35.84c0-6.4 5.12-11.52 11.52-11.52h153.6c7.68 0 15.36-6.4 15.36-15.36v-29.44c0-7.68-6.4-15.36-15.36-15.36h-153.6c-6.4 0-11.52-5.12-11.52-11.52v-35.84c0-6.4 5.12-11.52 11.52-11.52h153.6c7.68 0 15.36-6.4 15.36-15.36v-29.44c0-7.68-6.4-15.36-15.36-15.36h-153.6c-6.4 0-11.52-5.12-11.52-11.52V358.4c0-6.4 5.12-11.52 11.52-11.52h153.6c7.68 0 15.36-6.4 15.36-15.36v-29.44c0-7.68-6.4-15.36-15.36-15.36h-153.6c-6.4 0-11.52-5.12-11.52-11.52V238.08c0-6.4 5.12-11.52 11.52-11.52h153.6c7.68 0 15.36-6.4 15.36-15.36v-29.44c0-7.68-6.4-15.36-15.36-15.36h-153.6c-6.4 0-11.52-5.12-11.52-11.52V117.76c0-6.4 5.12-11.52 11.52-11.52h154.88c7.68 0 14.08-6.4 14.08-14.08v-51.2c0-6.4-6.4-12.8-14.08-12.8zM191.36 6.4c-20.48 40.96-72.96 175.36 6.4 308.48l116.48 195.84 107.52-140.8L205.44 5.12C201.6 0 193.92 0 191.36 6.4zM631.68 723.2l-80.64-134.4-17.92 24.32c-16.64 21.76-35.84 39.68-57.6 53.76 33.28 7.68 64 25.6 80.64 56.32l19.2 33.28c-47.36 43.52-60.16 116.48-25.6 174.08a139.872 139.872 0 0 0 192 48.64 139.872 139.872 0 0 0 48.64-192c-32-57.6-98.56-81.92-158.72-64z m75.52 194.56c-33.28 19.2-76.8 8.96-96-24.32-19.2-33.28-8.96-76.8 24.32-96 33.28-19.2 76.8-8.96 96 24.32 19.2 33.28 8.96 75.52-24.32 96z" p-id="2442" fill="#d81e06"></path><path d="M504.96 590.08l26.88-34.56 161.28-211.2c93.44-122.88 57.6-261.12 42.24-304.64-2.56-6.4-10.24-7.68-14.08-2.56L440.96 403.2 333.44 544 214.4 700.16c-57.6-24.32-126.72-8.96-166.4 43.52-47.36 61.44-34.56 148.48 26.88 195.84 61.44 47.36 149.76 34.56 195.84-25.6a138.752 138.752 0 0 0-5.12-175.36l23.04-30.72c21.76-28.16 55.04-43.52 90.88-46.08 6.4 0 12.8-1.28 17.92-2.56 10.24-1.28 20.48-5.12 29.44-8.96 32-12.8 57.6-33.28 78.08-60.16z m-289.28 281.6c-23.04 30.72-67.84 35.84-98.56 12.8a69.664 69.664 0 0 1-12.8-98.56c23.04-30.72 67.84-37.12 98.56-12.8 29.44 23.04 35.84 67.84 12.8 98.56z m236.8-311.04c-16.64 10.24-38.4 5.12-48.64-12.8-10.24-16.64-3.84-38.4 12.8-48.64 16.64-10.24 38.4-3.84 48.64 12.8 8.96 17.92 3.84 39.68-12.8 48.64z" p-id="2443" fill="#d81e06"></path></svg>